<svg xmlns="http://www.w3.org/2000/svg" xmlns:xlink="http://www.w3.org/1999/xlink" width="100" zoomAndPan="magnify" viewBox="0 0 75 52.499999" height="70" preserveAspectRatio="xMidYMid meet" version="1.0"><defs><g/><clipPath id="24ffc8e168"><path d="M 0.355469 6 L 25 6 L 25 33 L 0.355469 33 Z M 0.355469 6 " clip-rule="nonzero"/></clipPath><clipPath id="fdc8adddd1"><path d="M 0.355469 5 L 24 5 L 24 31 L 0.355469 31 Z M 0.355469 5 " clip-rule="nonzero"/></clipPath><clipPath id="42ceb84f53"><path d="M 0.355469 4 L 23 4 L 23 30 L 0.355469 30 Z M 0.355469 4 " clip-rule="nonzero"/></clipPath></defs><g clip-path="url(#24ffc8e168)"><g fill="#0097b2" fill-opacity="0.302"><g transform="translate(4.821094, 31.485136)"><g><path d="M 15.28125 -10.09375 C 15.0625 -8.5 14.140625 -7.296875 12.84375 -7.0625 C 12.671875 -7.03125 12.46875 -7.03125 12.296875 -7.015625 L 13.953125 -17.671875 C 14.03125 -18.21875 14.046875 -18.875 13.96875 -19.359375 C 13.421875 -22.46875 10.46875 -23.703125 7.90625 -23.25 C 7.03125 -23.09375 6.28125 -22.671875 5.578125 -21.96875 C 5.390625 -22.359375 4.46875 -22.703125 3.5625 -22.546875 C 2.75 -22.40625 1.984375 -21.875 1.796875 -20.640625 L -1.265625 -2.125 C -1.34375 -1.78125 -1.34375 -1.5 -1.296875 -1.234375 C -1.078125 -0.03125 0.09375 0.53125 1.171875 0.34375 C 1.953125 0.203125 2.671875 -0.34375 2.9375 -1.3125 C 4.03125 -0.609375 5.59375 -0.640625 6.25 -0.75 C 8.109375 -1.078125 9.96875 -2.171875 11.15625 -3.953125 C 11.75 -3.828125 12.390625 -3.8125 13.125 -3.9375 C 16 -4.4375 18.0625 -6.859375 18.328125 -9.96875 C 18.34375 -10.125 18.3125 -10.265625 18.296875 -10.40625 C 18.140625 -11.265625 17.359375 -11.59375 16.625 -11.453125 C 15.953125 -11.34375 15.359375 -10.890625 15.28125 -10.09375 Z M 3.859375 -9.09375 L 5.078125 -16.34375 C 5.53125 -18.609375 6.6875 -19.390625 7.8125 -19.578125 C 8.796875 -19.75 9.703125 -19.203125 9.890625 -18.125 C 9.9375 -17.828125 9.90625 -17.5 9.859375 -17.140625 L 8.578125 -8.796875 C 7.546875 -9.3125 6.40625 -9.625 4.90625 -9.375 C 4.53125 -9.3125 4.171875 -9.203125 3.859375 -9.09375 Z M 5.578125 -3.828125 C 4.671875 -3.65625 4.09375 -4.015625 4 -4.578125 C 3.859375 -5.375 4.546875 -6.140625 5.546875 -6.3125 C 6.40625 -6.453125 7.171875 -6.109375 7.921875 -5.640625 C 7.375 -4.609375 6.4375 -3.96875 5.578125 -3.828125 Z M 5.578125 -3.828125 "/></g></g></g></g><g fill="#0097b2" fill-opacity="0.302"><g transform="translate(20.500663, 28.75585)"><g><path d="M 11.171875 -9.046875 C 10.59375 -6.03125 8.234375 -4.421875 6.15625 -4.0625 C 4.359375 -3.75 3.078125 -4.421875 2.875 -5.546875 C 2.84375 -5.765625 2.84375 -5.984375 2.890625 -6.25 L 3.015625 -6.734375 C 3.796875 -6.4375 4.734375 -6.296875 5.71875 -6.46875 C 7.921875 -6.859375 9.640625 -8.578125 9.921875 -10.890625 C 9.96875 -11.390625 9.953125 -11.875 9.890625 -12.28125 C 9.484375 -14.609375 7.34375 -16.078125 4.5625 -15.59375 C 2.390625 -15.21875 0.484375 -13.5625 0.0625 -10.96875 L -0.65625 -6.53125 C -0.75 -5.90625 -0.765625 -5.3125 -0.671875 -4.75 C -0.15625 -1.84375 2.890625 -0.5 6.453125 -1.125 C 9.859375 -1.71875 13.421875 -4.046875 14.21875 -9.015625 C 14.265625 -9.21875 14.265625 -9.390625 14.25 -9.53125 C 14.109375 -10.296875 13.359375 -10.578125 12.625 -10.453125 C 11.9375 -10.34375 11.265625 -9.84375 11.171875 -9.046875 Z M 4.984375 -12.6875 C 5.6875 -12.8125 6.21875 -12.328125 6.34375 -11.625 C 6.390625 -11.421875 6.390625 -11.21875 6.34375 -11 C 6.25 -10.171875 5.5625 -9.75 4.828125 -9.609375 C 4.359375 -9.53125 3.890625 -9.546875 3.5 -9.6875 L 3.78125 -11.234375 C 3.890625 -12.046875 4.4375 -12.59375 4.984375 -12.6875 Z M 4.984375 -12.6875 "/></g></g></g><g fill="#0097b2" fill-opacity="0.302"><g transform="translate(32.095228, 26.737625)"><g><path d="M 2.671875 -4.5625 L 5.203125 -20.328125 C 5.265625 -20.65625 5.25 -20.9375 5.21875 -21.1875 C 5.046875 -22.125 4.078125 -22.578125 3.328125 -22.453125 C 2.40625 -22.296875 1.875 -21.671875 1.6875 -20.5 L -0.890625 -5.09375 C -0.984375 -4.5 -1 -3.96875 -0.90625 -3.453125 C -0.515625 -1.203125 1.5625 -0.265625 3.71875 -0.640625 C 6.03125 -1.046875 8.703125 -3.015625 9.53125 -8.390625 C 9.546875 -8.5625 9.546875 -8.75 9.53125 -8.890625 C 9.390625 -9.671875 8.59375 -10.109375 7.84375 -9.984375 C 7.234375 -9.875 6.625 -9.390625 6.453125 -8.4375 C 5.859375 -5.296875 4.65625 -3.796875 3.515625 -3.609375 C 3.03125 -3.515625 2.6875 -3.765625 2.625 -4.140625 C 2.609375 -4.21875 2.640625 -4.40625 2.671875 -4.5625 Z M 2.671875 -4.5625 "/></g></g></g><g fill="#0097b2" fill-opacity="0.302"><g transform="translate(38.919875, 25.549684)"><g><path d="M 3.6875 -17.75 C 4.796875 -17.953125 5.546875 -19.015625 5.34375 -20.140625 C 5.15625 -21.234375 4.09375 -21.96875 2.984375 -21.765625 C 1.890625 -21.578125 1.140625 -20.53125 1.328125 -19.4375 C 1.53125 -18.3125 2.59375 -17.5625 3.6875 -17.75 Z M 2.5625 -4.71875 L 3.90625 -12.859375 C 3.953125 -13.1875 4.015625 -13.546875 3.96875 -13.796875 C 3.78125 -14.875 2.890625 -15.296875 2.0625 -15.15625 C 1.28125 -15.015625 0.578125 -14.34375 0.390625 -13.125 C 0 -10.6875 -0.515625 -7.609375 -0.90625 -5.1875 C -0.96875 -4.65625 -1.046875 -3.96875 -0.96875 -3.5625 C -0.578125 -1.265625 1.5625 -0.265625 3.8125 -0.671875 C 6.21875 -1.078125 8.59375 -3.015625 9.421875 -8.375 C 9.46875 -8.53125 9.453125 -8.65625 9.421875 -8.8125 C 9.296875 -9.578125 8.484375 -9.90625 7.75 -9.78125 C 7.09375 -9.671875 6.484375 -9.203125 6.328125 -8.40625 C 5.71875 -5.015625 4.609375 -3.796875 3.640625 -3.625 C 3.078125 -3.53125 2.625 -3.84375 2.546875 -4.296875 C 2.53125 -4.421875 2.546875 -4.546875 2.5625 -4.71875 Z M 2.5625 -4.71875 "/></g></g></g><g fill="#0097b2" fill-opacity="0.302"><g transform="translate(45.671139, 24.374515)"><g><path d="M 12.28125 -9.625 C 12.0625 -8.390625 11.578125 -7.640625 10.671875 -7.46875 C 9.859375 -7.328125 9.34375 -7.78125 9.234375 -8.453125 C 9.203125 -8.625 9.21875 -8.875 9.25 -9.125 C 10.15625 -11.75 10.796875 -13.171875 10.5625 -14.53125 C 10.34375 -15.734375 9.5 -16.453125 8.171875 -16.21875 C 5.6875 -15.78125 4.546875 -12.015625 5 -9.421875 C 5.09375 -8.84375 5.28125 -8.3125 5.578125 -7.859375 L 4.578125 -5.59375 C 4.296875 -4.984375 3.640625 -3.84375 3.28125 -3.78125 C 3.21875 -3.765625 3.171875 -3.828125 3.140625 -3.96875 C 3.109375 -4.1875 3.078125 -4.421875 3.109375 -4.703125 L 3.625 -12.875 C 3.625 -13.15625 3.609375 -13.40625 3.5625 -13.625 C 3.359375 -14.796875 2.46875 -15.21875 1.609375 -15.078125 C 0.734375 -14.921875 -0.046875 -14.203125 -0.109375 -13.109375 L -0.5 -4.828125 C -0.53125 -4.359375 -0.5 -3.921875 -0.4375 -3.53125 C -0.0625 -1.359375 1.5625 -0.265625 3.484375 -0.609375 C 5.203125 -0.90625 5.875 -1.84375 7.171875 -3.984375 L 7.890625 -5.25 C 8.703125 -4.5625 9.859375 -4.296875 11.15625 -4.515625 C 13.53125 -4.9375 15.046875 -6.8125 15.359375 -9.484375 C 15.390625 -9.640625 15.359375 -9.765625 15.34375 -9.875 C 15.203125 -10.6875 14.359375 -11.046875 13.609375 -10.921875 C 12.96875 -10.8125 12.40625 -10.375 12.28125 -9.625 Z M 12.28125 -9.625 "/></g></g></g><g fill="#0097b2" fill-opacity="0.302"><g transform="translate(58.366453, 22.164688)"><g><path d="M 11.171875 -9.046875 C 10.59375 -6.03125 8.234375 -4.421875 6.15625 -4.0625 C 4.359375 -3.75 3.078125 -4.421875 2.875 -5.546875 C 2.84375 -5.765625 2.84375 -5.984375 2.890625 -6.25 L 3.015625 -6.734375 C 3.796875 -6.4375 4.734375 -6.296875 5.71875 -6.46875 C 7.921875 -6.859375 9.640625 -8.578125 9.921875 -10.890625 C 9.96875 -11.390625 9.953125 -11.875 9.890625 -12.28125 C 9.484375 -14.609375 7.34375 -16.078125 4.5625 -15.59375 C 2.390625 -15.21875 0.484375 -13.5625 0.0625 -10.96875 L -0.65625 -6.53125 C -0.75 -5.90625 -0.765625 -5.3125 -0.671875 -4.75 C -0.15625 -1.84375 2.890625 -0.5 6.453125 -1.125 C 9.859375 -1.71875 13.421875 -4.046875 14.21875 -9.015625 C 14.265625 -9.21875 14.265625 -9.390625 14.25 -9.53125 C 14.109375 -10.296875 13.359375 -10.578125 12.625 -10.453125 C 11.9375 -10.34375 11.265625 -9.84375 11.171875 -9.046875 Z M 4.984375 -12.6875 C 5.6875 -12.8125 6.21875 -12.328125 6.34375 -11.625 C 6.390625 -11.421875 6.390625 -11.21875 6.34375 -11 C 6.25 -10.171875 5.5625 -9.75 4.828125 -9.609375 C 4.359375 -9.53125 3.890625 -9.546875 3.5 -9.6875 L 3.78125 -11.234375 C 3.890625 -12.046875 4.4375 -12.59375 4.984375 -12.6875 Z M 4.984375 -12.6875 "/></g></g></g><g clip-path="url(#fdc8adddd1)"><g fill="#0097b2" fill-opacity="0.502"><g transform="translate(3.660887, 30.190897)"><g><path d="M 15.28125 -10.09375 C 15.0625 -8.5 14.140625 -7.296875 12.84375 -7.0625 C 12.671875 -7.03125 12.46875 -7.03125 12.296875 -7.015625 L 13.953125 -17.671875 C 14.03125 -18.21875 14.046875 -18.875 13.96875 -19.359375 C 13.421875 -22.46875 10.46875 -23.703125 7.90625 -23.25 C 7.03125 -23.09375 6.28125 -22.671875 5.578125 -21.96875 C 5.390625 -22.359375 4.46875 -22.703125 3.5625 -22.546875 C 2.75 -22.40625 1.984375 -21.875 1.796875 -20.640625 L -1.265625 -2.125 C -1.34375 -1.78125 -1.34375 -1.5 -1.296875 -1.234375 C -1.078125 -0.03125 0.09375 0.53125 1.171875 0.34375 C 1.953125 0.203125 2.671875 -0.34375 2.9375 -1.3125 C 4.03125 -0.609375 5.59375 -0.640625 6.25 -0.75 C 8.109375 -1.078125 9.96875 -2.171875 11.15625 -3.953125 C 11.75 -3.828125 12.390625 -3.8125 13.125 -3.9375 C 16 -4.4375 18.0625 -6.859375 18.328125 -9.96875 C 18.34375 -10.125 18.3125 -10.265625 18.296875 -10.40625 C 18.140625 -11.265625 17.359375 -11.59375 16.625 -11.453125 C 15.953125 -11.34375 15.359375 -10.890625 15.28125 -10.09375 Z M 3.859375 -9.09375 L 5.078125 -16.34375 C 5.53125 -18.609375 6.6875 -19.390625 7.8125 -19.578125 C 8.796875 -19.75 9.703125 -19.203125 9.890625 -18.125 C 9.9375 -17.828125 9.90625 -17.5 9.859375 -17.140625 L 8.578125 -8.796875 C 7.546875 -9.3125 6.40625 -9.625 4.90625 -9.375 C 4.53125 -9.3125 4.171875 -9.203125 3.859375 -9.09375 Z M 5.578125 -3.828125 C 4.671875 -3.65625 4.09375 -4.015625 4 -4.578125 C 3.859375 -5.375 4.546875 -6.140625 5.546875 -6.3125 C 6.40625 -6.453125 7.171875 -6.109375 7.921875 -5.640625 C 7.375 -4.609375 6.4375 -3.96875 5.578125 -3.828125 Z M 5.578125 -3.828125 "/></g></g></g></g><g fill="#0097b2" fill-opacity="0.502"><g transform="translate(19.340456, 27.461611)"><g><path d="M 11.171875 -9.046875 C 10.59375 -6.03125 8.234375 -4.421875 6.15625 -4.0625 C 4.359375 -3.75 3.078125 -4.421875 2.875 -5.546875 C 2.84375 -5.765625 2.84375 -5.984375 2.890625 -6.25 L 3.015625 -6.734375 C 3.796875 -6.4375 4.734375 -6.296875 5.71875 -6.46875 C 7.921875 -6.859375 9.640625 -8.578125 9.921875 -10.890625 C 9.96875 -11.390625 9.953125 -11.875 9.890625 -12.28125 C 9.484375 -14.609375 7.34375 -16.078125 4.5625 -15.59375 C 2.390625 -15.21875 0.484375 -13.5625 0.0625 -10.96875 L -0.65625 -6.53125 C -0.75 -5.90625 -0.765625 -5.3125 -0.671875 -4.75 C -0.15625 -1.84375 2.890625 -0.5 6.453125 -1.125 C 9.859375 -1.71875 13.421875 -4.046875 14.21875 -9.015625 C 14.265625 -9.21875 14.265625 -9.390625 14.25 -9.53125 C 14.109375 -10.296875 13.359375 -10.578125 12.625 -10.453125 C 11.9375 -10.34375 11.265625 -9.84375 11.171875 -9.046875 Z M 4.984375 -12.6875 C 5.6875 -12.8125 6.21875 -12.328125 6.34375 -11.625 C 6.390625 -11.421875 6.390625 -11.21875 6.34375 -11 C 6.25 -10.171875 5.5625 -9.75 4.828125 -9.609375 C 4.359375 -9.53125 3.890625 -9.546875 3.5 -9.6875 L 3.78125 -11.234375 C 3.890625 -12.046875 4.4375 -12.59375 4.984375 -12.6875 Z M 4.984375 -12.6875 "/></g></g></g><g fill="#0097b2" fill-opacity="0.502"><g transform="translate(30.93502, 25.443387)"><g><path d="M 2.671875 -4.5625 L 5.203125 -20.328125 C 5.265625 -20.65625 5.25 -20.9375 5.21875 -21.1875 C 5.046875 -22.125 4.078125 -22.578125 3.328125 -22.453125 C 2.40625 -22.296875 1.875 -21.671875 1.6875 -20.5 L -0.890625 -5.09375 C -0.984375 -4.5 -1 -3.96875 -0.90625 -3.453125 C -0.515625 -1.203125 1.5625 -0.265625 3.71875 -0.640625 C 6.03125 -1.046875 8.703125 -3.015625 9.53125 -8.390625 C 9.546875 -8.5625 9.546875 -8.75 9.53125 -8.890625 C 9.390625 -9.671875 8.59375 -10.109375 7.84375 -9.984375 C 7.234375 -9.875 6.625 -9.390625 6.453125 -8.4375 C 5.859375 -5.296875 4.65625 -3.796875 3.515625 -3.609375 C 3.03125 -3.515625 2.6875 -3.765625 2.625 -4.140625 C 2.609375 -4.21875 2.640625 -4.40625 2.671875 -4.5625 Z M 2.671875 -4.5625 "/></g></g></g><g fill="#0097b2" fill-opacity="0.502"><g transform="translate(37.759667, 24.255445)"><g><path d="M 3.6875 -17.75 C 4.796875 -17.953125 5.546875 -19.015625 5.34375 -20.140625 C 5.15625 -21.234375 4.09375 -21.96875 2.984375 -21.765625 C 1.890625 -21.578125 1.140625 -20.53125 1.328125 -19.4375 C 1.53125 -18.3125 2.59375 -17.5625 3.6875 -17.75 Z M 2.5625 -4.71875 L 3.90625 -12.859375 C 3.953125 -13.1875 4.015625 -13.546875 3.96875 -13.796875 C 3.78125 -14.875 2.890625 -15.296875 2.0625 -15.15625 C 1.28125 -15.015625 0.578125 -14.34375 0.390625 -13.125 C 0 -10.6875 -0.515625 -7.609375 -0.90625 -5.1875 C -0.96875 -4.65625 -1.046875 -3.96875 -0.96875 -3.5625 C -0.578125 -1.265625 1.5625 -0.265625 3.8125 -0.671875 C 6.21875 -1.078125 8.59375 -3.015625 9.421875 -8.375 C 9.46875 -8.53125 9.453125 -8.65625 9.421875 -8.8125 C 9.296875 -9.578125 8.484375 -9.90625 7.75 -9.78125 C 7.09375 -9.671875 6.484375 -9.203125 6.328125 -8.40625 C 5.71875 -5.015625 4.609375 -3.796875 3.640625 -3.625 C 3.078125 -3.53125 2.625 -3.84375 2.546875 -4.296875 C 2.53125 -4.421875 2.546875 -4.546875 2.5625 -4.71875 Z M 2.5625 -4.71875 "/></g></g></g><g fill="#0097b2" fill-opacity="0.502"><g transform="translate(44.510932, 23.080277)"><g><path d="M 12.28125 -9.625 C 12.0625 -8.390625 11.578125 -7.640625 10.671875 -7.46875 C 9.859375 -7.328125 9.34375 -7.78125 9.234375 -8.453125 C 9.203125 -8.625 9.21875 -8.875 9.25 -9.125 C 10.15625 -11.75 10.796875 -13.171875 10.5625 -14.53125 C 10.34375 -15.734375 9.5 -16.453125 8.171875 -16.21875 C 5.6875 -15.78125 4.546875 -12.015625 5 -9.421875 C 5.09375 -8.84375 5.28125 -8.3125 5.578125 -7.859375 L 4.578125 -5.59375 C 4.296875 -4.984375 3.640625 -3.84375 3.28125 -3.78125 C 3.21875 -3.765625 3.171875 -3.828125 3.140625 -3.96875 C 3.109375 -4.1875 3.078125 -4.421875 3.109375 -4.703125 L 3.625 -12.875 C 3.625 -13.15625 3.609375 -13.40625 3.5625 -13.625 C 3.359375 -14.796875 2.46875 -15.21875 1.609375 -15.078125 C 0.734375 -14.921875 -0.046875 -14.203125 -0.109375 -13.109375 L -0.5 -4.828125 C -0.53125 -4.359375 -0.5 -3.921875 -0.4375 -3.53125 C -0.0625 -1.359375 1.5625 -0.265625 3.484375 -0.609375 C 5.203125 -0.90625 5.875 -1.84375 7.171875 -3.984375 L 7.890625 -5.25 C 8.703125 -4.5625 9.859375 -4.296875 11.15625 -4.515625 C 13.53125 -4.9375 15.046875 -6.8125 15.359375 -9.484375 C 15.390625 -9.640625 15.359375 -9.765625 15.34375 -9.875 C 15.203125 -10.6875 14.359375 -11.046875 13.609375 -10.921875 C 12.96875 -10.8125 12.40625 -10.375 12.28125 -9.625 Z M 12.28125 -9.625 "/></g></g></g><g fill="#0097b2" fill-opacity="0.502"><g transform="translate(57.206245, 20.870449)"><g><path d="M 11.171875 -9.046875 C 10.59375 -6.03125 8.234375 -4.421875 6.15625 -4.0625 C 4.359375 -3.75 3.078125 -4.421875 2.875 -5.546875 C 2.84375 -5.765625 2.84375 -5.984375 2.890625 -6.25 L 3.015625 -6.734375 C 3.796875 -6.4375 4.734375 -6.296875 5.71875 -6.46875 C 7.921875 -6.859375 9.640625 -8.578125 9.921875 -10.890625 C 9.96875 -11.390625 9.953125 -11.875 9.890625 -12.28125 C 9.484375 -14.609375 7.34375 -16.078125 4.5625 -15.59375 C 2.390625 -15.21875 0.484375 -13.5625 0.0625 -10.96875 L -0.65625 -6.53125 C -0.75 -5.90625 -0.765625 -5.3125 -0.671875 -4.75 C -0.15625 -1.84375 2.890625 -0.5 6.453125 -1.125 C 9.859375 -1.71875 13.421875 -4.046875 14.21875 -9.015625 C 14.265625 -9.21875 14.265625 -9.390625 14.25 -9.53125 C 14.109375 -10.296875 13.359375 -10.578125 12.625 -10.453125 C 11.9375 -10.34375 11.265625 -9.84375 11.171875 -9.046875 Z M 4.984375 -12.6875 C 5.6875 -12.8125 6.21875 -12.328125 6.34375 -11.625 C 6.390625 -11.421875 6.390625 -11.21875 6.34375 -11 C 6.25 -10.171875 5.5625 -9.75 4.828125 -9.609375 C 4.359375 -9.53125 3.890625 -9.546875 3.5 -9.6875 L 3.78125 -11.234375 C 3.890625 -12.046875 4.4375 -12.59375 4.984375 -12.6875 Z M 4.984375 -12.6875 "/></g></g></g><g clip-path="url(#42ceb84f53)"><g fill="#ffffff" fill-opacity="1"><g transform="translate(2.50068, 28.896659)"><g><path d="M 15.28125 -10.09375 C 15.0625 -8.5 14.140625 -7.296875 12.84375 -7.0625 C 12.671875 -7.03125 12.46875 -7.03125 12.296875 -7.015625 L 13.953125 -17.671875 C 14.03125 -18.21875 14.046875 -18.875 13.96875 -19.359375 C 13.421875 -22.46875 10.46875 -23.703125 7.90625 -23.25 C 7.03125 -23.09375 6.28125 -22.671875 5.578125 -21.96875 C 5.390625 -22.359375 4.46875 -22.703125 3.5625 -22.546875 C 2.75 -22.40625 1.984375 -21.875 1.796875 -20.640625 L -1.265625 -2.125 C -1.34375 -1.78125 -1.34375 -1.5 -1.296875 -1.234375 C -1.078125 -0.03125 0.09375 0.53125 1.171875 0.34375 C 1.953125 0.203125 2.671875 -0.34375 2.9375 -1.3125 C 4.03125 -0.609375 5.59375 -0.640625 6.25 -0.75 C 8.109375 -1.078125 9.96875 -2.171875 11.15625 -3.953125 C 11.75 -3.828125 12.390625 -3.8125 13.125 -3.9375 C 16 -4.4375 18.0625 -6.859375 18.328125 -9.96875 C 18.34375 -10.125 18.3125 -10.265625 18.296875 -10.40625 C 18.140625 -11.265625 17.359375 -11.59375 16.625 -11.453125 C 15.953125 -11.34375 15.359375 -10.890625 15.28125 -10.09375 Z M 3.859375 -9.09375 L 5.078125 -16.34375 C 5.53125 -18.609375 6.6875 -19.390625 7.8125 -19.578125 C 8.796875 -19.75 9.703125 -19.203125 9.890625 -18.125 C 9.9375 -17.828125 9.90625 -17.5 9.859375 -17.140625 L 8.578125 -8.796875 C 7.546875 -9.3125 6.40625 -9.625 4.90625 -9.375 C 4.53125 -9.3125 4.171875 -9.203125 3.859375 -9.09375 Z M 5.578125 -3.828125 C 4.671875 -3.65625 4.09375 -4.015625 4 -4.578125 C 3.859375 -5.375 4.546875 -6.140625 5.546875 -6.3125 C 6.40625 -6.453125 7.171875 -6.109375 7.921875 -5.640625 C 7.375 -4.609375 6.4375 -3.96875 5.578125 -3.828125 Z M 5.578125 -3.828125 "/></g></g></g></g><g fill="#ffffff" fill-opacity="1"><g transform="translate(18.180249, 26.167373)"><g><path d="M 11.171875 -9.046875 C 10.59375 -6.03125 8.234375 -4.421875 6.15625 -4.0625 C 4.359375 -3.75 3.078125 -4.421875 2.875 -5.546875 C 2.84375 -5.765625 2.84375 -5.984375 2.890625 -6.25 L 3.015625 -6.734375 C 3.796875 -6.4375 4.734375 -6.296875 5.71875 -6.46875 C 7.921875 -6.859375 9.640625 -8.578125 9.921875 -10.890625 C 9.96875 -11.390625 9.953125 -11.875 9.890625 -12.28125 C 9.484375 -14.609375 7.34375 -16.078125 4.5625 -15.59375 C 2.390625 -15.21875 0.484375 -13.5625 0.0625 -10.96875 L -0.65625 -6.53125 C -0.75 -5.90625 -0.765625 -5.3125 -0.671875 -4.75 C -0.15625 -1.84375 2.890625 -0.5 6.453125 -1.125 C 9.859375 -1.71875 13.421875 -4.046875 14.21875 -9.015625 C 14.265625 -9.21875 14.265625 -9.390625 14.25 -9.53125 C 14.109375 -10.296875 13.359375 -10.578125 12.625 -10.453125 C 11.9375 -10.34375 11.265625 -9.84375 11.171875 -9.046875 Z M 4.984375 -12.6875 C 5.6875 -12.8125 6.21875 -12.328125 6.34375 -11.625 C 6.390625 -11.421875 6.390625 -11.21875 6.34375 -11 C 6.25 -10.171875 5.5625 -9.75 4.828125 -9.609375 C 4.359375 -9.53125 3.890625 -9.546875 3.5 -9.6875 L 3.78125 -11.234375 C 3.890625 -12.046875 4.4375 -12.59375 4.984375 -12.6875 Z M 4.984375 -12.6875 "/></g></g></g><g fill="#ffffff" fill-opacity="1"><g transform="translate(29.774813, 24.149149)"><g><path d="M 2.671875 -4.5625 L 5.203125 -20.328125 C 5.265625 -20.65625 5.25 -20.9375 5.21875 -21.1875 C 5.046875 -22.125 4.078125 -22.578125 3.328125 -22.453125 C 2.40625 -22.296875 1.875 -21.671875 1.6875 -20.5 L -0.890625 -5.09375 C -0.984375 -4.5 -1 -3.96875 -0.90625 -3.453125 C -0.515625 -1.203125 1.5625 -0.265625 3.71875 -0.640625 C 6.03125 -1.046875 8.703125 -3.015625 9.53125 -8.390625 C 9.546875 -8.5625 9.546875 -8.75 9.53125 -8.890625 C 9.390625 -9.671875 8.59375 -10.109375 7.84375 -9.984375 C 7.234375 -9.875 6.625 -9.390625 6.453125 -8.4375 C 5.859375 -5.296875 4.65625 -3.796875 3.515625 -3.609375 C 3.03125 -3.515625 2.6875 -3.765625 2.625 -4.140625 C 2.609375 -4.21875 2.640625 -4.40625 2.671875 -4.5625 Z M 2.671875 -4.5625 "/></g></g></g><g fill="#ffffff" fill-opacity="1"><g transform="translate(36.59946, 22.961207)"><g><path d="M 3.6875 -17.75 C 4.796875 -17.953125 5.546875 -19.015625 5.34375 -20.140625 C 5.15625 -21.234375 4.09375 -21.96875 2.984375 -21.765625 C 1.890625 -21.578125 1.140625 -20.53125 1.328125 -19.4375 C 1.53125 -18.3125 2.59375 -17.5625 3.6875 -17.75 Z M 2.5625 -4.71875 L 3.90625 -12.859375 C 3.953125 -13.1875 4.015625 -13.546875 3.96875 -13.796875 C 3.78125 -14.875 2.890625 -15.296875 2.0625 -15.15625 C 1.28125 -15.015625 0.578125 -14.34375 0.390625 -13.125 C 0 -10.6875 -0.515625 -7.609375 -0.90625 -5.1875 C -0.96875 -4.65625 -1.046875 -3.96875 -0.96875 -3.5625 C -0.578125 -1.265625 1.5625 -0.265625 3.8125 -0.671875 C 6.21875 -1.078125 8.59375 -3.015625 9.421875 -8.375 C 9.46875 -8.53125 9.453125 -8.65625 9.421875 -8.8125 C 9.296875 -9.578125 8.484375 -9.90625 7.75 -9.78125 C 7.09375 -9.671875 6.484375 -9.203125 6.328125 -8.40625 C 5.71875 -5.015625 4.609375 -3.796875 3.640625 -3.625 C 3.078125 -3.53125 2.625 -3.84375 2.546875 -4.296875 C 2.53125 -4.421875 2.546875 -4.546875 2.5625 -4.71875 Z M 2.5625 -4.71875 "/></g></g></g><g fill="#ffffff" fill-opacity="1"><g transform="translate(43.350725, 21.786039)"><g><path d="M 12.28125 -9.625 C 12.0625 -8.390625 11.578125 -7.640625 10.671875 -7.46875 C 9.859375 -7.328125 9.34375 -7.78125 9.234375 -8.453125 C 9.203125 -8.625 9.21875 -8.875 9.25 -9.125 C 10.15625 -11.75 10.796875 -13.171875 10.5625 -14.53125 C 10.34375 -15.734375 9.5 -16.453125 8.171875 -16.21875 C 5.6875 -15.78125 4.546875 -12.015625 5 -9.421875 C 5.09375 -8.84375 5.28125 -8.3125 5.578125 -7.859375 L 4.578125 -5.59375 C 4.296875 -4.984375 3.640625 -3.84375 3.28125 -3.78125 C 3.21875 -3.765625 3.171875 -3.828125 3.140625 -3.96875 C 3.109375 -4.1875 3.078125 -4.421875 3.109375 -4.703125 L 3.625 -12.875 C 3.625 -13.15625 3.609375 -13.40625 3.5625 -13.625 C 3.359375 -14.796875 2.46875 -15.21875 1.609375 -15.078125 C 0.734375 -14.921875 -0.046875 -14.203125 -0.109375 -13.109375 L -0.5 -4.828125 C -0.53125 -4.359375 -0.5 -3.921875 -0.4375 -3.53125 C -0.0625 -1.359375 1.5625 -0.265625 3.484375 -0.609375 C 5.203125 -0.90625 5.875 -1.84375 7.171875 -3.984375 L 7.890625 -5.25 C 8.703125 -4.5625 9.859375 -4.296875 11.15625 -4.515625 C 13.53125 -4.9375 15.046875 -6.8125 15.359375 -9.484375 C 15.390625 -9.640625 15.359375 -9.765625 15.34375 -9.875 C 15.203125 -10.6875 14.359375 -11.046875 13.609375 -10.921875 C 12.96875 -10.8125 12.40625 -10.375 12.28125 -9.625 Z M 12.28125 -9.625 "/></g></g></g><g fill="#ffffff" fill-opacity="1"><g transform="translate(56.046038, 19.576211)"><g><path d="M 11.171875 -9.046875 C 10.59375 -6.03125 8.234375 -4.421875 6.15625 -4.0625 C 4.359375 -3.75 3.078125 -4.421875 2.875 -5.546875 C 2.84375 -5.765625 2.84375 -5.984375 2.890625 -6.25 L 3.015625 -6.734375 C 3.796875 -6.4375 4.734375 -6.296875 5.71875 -6.46875 C 7.921875 -6.859375 9.640625 -8.578125 9.921875 -10.890625 C 9.96875 -11.390625 9.953125 -11.875 9.890625 -12.28125 C 9.484375 -14.609375 7.34375 -16.078125 4.5625 -15.59375 C 2.390625 -15.21875 0.484375 -13.5625 0.0625 -10.96875 L -0.65625 -6.53125 C -0.75 -5.90625 -0.765625 -5.3125 -0.671875 -4.75 C -0.15625 -1.84375 2.890625 -0.5 6.453125 -1.125 C 9.859375 -1.71875 13.421875 -4.046875 14.21875 -9.015625 C 14.265625 -9.21875 14.265625 -9.390625 14.25 -9.53125 C 14.109375 -10.296875 13.359375 -10.578125 12.625 -10.453125 C 11.9375 -10.34375 11.265625 -9.84375 11.171875 -9.046875 Z M 4.984375 -12.6875 C 5.6875 -12.8125 6.21875 -12.328125 6.34375 -11.625 C 6.390625 -11.421875 6.390625 -11.21875 6.34375 -11 C 6.25 -10.171875 5.5625 -9.75 4.828125 -9.609375 C 4.359375 -9.53125 3.890625 -9.546875 3.5 -9.6875 L 3.78125 -11.234375 C 3.890625 -12.046875 4.4375 -12.59375 4.984375 -12.6875 Z M 4.984375 -12.6875 "/></g></g></g><g fill="#0097b2" fill-opacity="0.302"><g transform="translate(23.475709, 49.391818)"><g><path d="M 14.546875 -8.90625 C 14.28125 -7.46875 13.546875 -6.421875 12.328125 -6.234375 L 12.3125 -6.234375 C 12.640625 -7.15625 12.828125 -8.28125 12.65625 -9.421875 C 12.484375 -10.59375 11.921875 -11.734375 10.84375 -12.609375 C 12.171875 -13.8125 12.890625 -15.921875 12.640625 -17.625 C 12.296875 -19.875 10.390625 -20.953125 8.453125 -20.875 C 8.25 -20.859375 7.984375 -20.84375 7.671875 -20.796875 C 7.0625 -20.703125 6.25 -20.484375 5.484375 -19.9375 C 5.375 -20.671875 4.640625 -21.03125 3.890625 -20.921875 C 3.15625 -20.796875 2.359375 -20.203125 2.203125 -19.140625 L -1.078125 -1.890625 C -1.171875 -1.59375 -1.15625 -1.296875 -1.125 -1.078125 C -0.984375 -0.171875 -0.234375 0.265625 0.515625 0.140625 C 1.296875 0.03125 2.0625 -0.640625 2.109375 -1.90625 C 3.0625 -0.921875 4.84375 -0.484375 6.59375 -0.734375 C 8.265625 -1 9.984375 -1.84375 11.109375 -3.421875 C 11.53125 -3.359375 12 -3.34375 12.53125 -3.421875 C 15.109375 -3.8125 16.90625 -5.921875 17.28125 -8.75 C 17.28125 -8.859375 17.296875 -8.953125 17.28125 -9.046875 C 17.171875 -9.78125 16.390625 -10.09375 15.6875 -9.984375 C 15.125 -9.90625 14.640625 -9.5625 14.546875 -8.90625 Z M 5.65625 -14.125 C 5 -13.734375 4.484375 -12.71875 4.640625 -11.703125 C 4.671875 -11.515625 4.734375 -11.3125 4.796875 -11.125 C 5.359375 -10 6.40625 -9.8125 7.25 -9.9375 C 7.59375 -9.984375 7.875 -10.078125 8.078125 -10.203125 C 8.671875 -10.140625 9.046875 -9.703125 9.15625 -8.96875 C 9.21875 -8.59375 9.21875 -8.171875 9.109375 -7.671875 C 8.1875 -8.3125 6.921875 -8.71875 5.421875 -8.5 C 4.71875 -8.40625 3.890625 -8.171875 3.390625 -7.828125 L 4.921875 -15.5625 C 5.296875 -16.734375 6.46875 -17.4375 7.421875 -17.578125 C 8.203125 -17.703125 8.9375 -17.328125 9.046875 -16.5625 C 9.140625 -15.9375 9 -14.8125 8 -14.234375 C 7.75 -14.375 7.109375 -14.484375 6.484375 -14.390625 C 6.1875 -14.34375 5.921875 -14.265625 5.65625 -14.125 Z M 5.9375 -3.484375 C 5.125 -3.359375 4.59375 -3.6875 4.515625 -4.203125 C 4.5 -4.296875 4.484375 -4.40625 4.515625 -4.515625 C 4.59375 -5.125 5.125 -5.609375 5.953125 -5.75 C 6.84375 -5.875 7.515625 -5.484375 8.203125 -4.96875 C 7.625 -4.109375 6.734375 -3.609375 5.9375 -3.484375 Z M 5.9375 -3.484375 "/></g></g></g><g fill="#0097b2" fill-opacity="0.302"><g transform="translate(38.213201, 47.165781)"><g><path d="M 8.640625 -6.03125 C 8.65625 -6 8.59375 -6.34375 8.4375 -6.75 C 8.578125 -6.90625 8.703125 -7.09375 8.8125 -7.328125 C 9.109375 -7.921875 9.484375 -9.953125 9.34375 -10.828125 C 9 -13.09375 6.9375 -14.3125 4.53125 -13.953125 C 2.46875 -13.640625 0.671875 -12.1875 0.265625 -10.125 L -0.65625 -5.3125 C -0.78125 -4.734375 -0.796875 -4.1875 -0.71875 -3.6875 C -0.359375 -1.375 1.84375 -0.28125 4.09375 -0.625 C 5.8125 -0.875 7.3125 -1.671875 7.984375 -3.390625 C 8.390625 -3.359375 8.859375 -3.359375 9.328125 -3.421875 C 11.9375 -3.8125 13.71875 -5.96875 14.125 -8.421875 C 14.140625 -8.65625 14.15625 -8.90625 14.125 -9.09375 C 14 -9.90625 13.328125 -10.28125 12.703125 -10.1875 C 12.09375 -10.09375 11.53125 -9.640625 11.421875 -8.8125 C 11.125 -7.359375 10.265625 -6.25 8.96875 -6.046875 C 8.875 -6.03125 8.75 -6.015625 8.640625 -6.03125 Z M 6.078125 -9.109375 C 6.046875 -8.90625 6 -8.71875 6.015625 -8.546875 C 4.78125 -8.484375 3.828125 -7.34375 4.03125 -6.015625 C 4.171875 -5.265625 4.609375 -4.921875 5.078125 -4.640625 C 4.90625 -3.8125 4.34375 -3.34375 3.65625 -3.234375 C 2.796875 -3.109375 2.5 -3.609375 2.40625 -4.140625 C 2.34375 -4.5625 2.390625 -4.984375 2.4375 -5.203125 L 3.34375 -9.921875 C 3.484375 -10.6875 4.203125 -11.234375 4.890625 -11.328125 C 5.578125 -11.4375 6.0625 -11.046875 6.140625 -10.53125 C 6.203125 -10.125 6.171875 -9.609375 6.078125 -9.109375 Z M 6.078125 -9.109375 "/></g></g></g><g fill="#0097b2" fill-opacity="0.302"><g transform="translate(49.74689, 45.423664)"><g><path d="M 8.640625 -6.03125 C 8.65625 -6 8.59375 -6.34375 8.4375 -6.75 C 8.578125 -6.90625 8.703125 -7.09375 8.8125 -7.328125 C 9.109375 -7.921875 9.484375 -9.953125 9.34375 -10.828125 C 9 -13.09375 6.9375 -14.3125 4.53125 -13.953125 C 2.46875 -13.640625 0.671875 -12.1875 0.265625 -10.125 L -0.65625 -5.3125 C -0.78125 -4.734375 -0.796875 -4.1875 -0.71875 -3.6875 C -0.359375 -1.375 1.84375 -0.28125 4.09375 -0.625 C 5.8125 -0.875 7.3125 -1.671875 7.984375 -3.390625 C 8.390625 -3.359375 8.859375 -3.359375 9.328125 -3.421875 C 11.9375 -3.8125 13.71875 -5.96875 14.125 -8.421875 C 14.140625 -8.65625 14.15625 -8.90625 14.125 -9.09375 C 14 -9.90625 13.328125 -10.28125 12.703125 -10.1875 C 12.09375 -10.09375 11.53125 -9.640625 11.421875 -8.8125 C 11.125 -7.359375 10.265625 -6.25 8.96875 -6.046875 C 8.875 -6.03125 8.75 -6.015625 8.640625 -6.03125 Z M 6.078125 -9.109375 C 6.046875 -8.90625 6 -8.71875 6.015625 -8.546875 C 4.78125 -8.484375 3.828125 -7.34375 4.03125 -6.015625 C 4.171875 -5.265625 4.609375 -4.921875 5.078125 -4.640625 C 4.90625 -3.8125 4.34375 -3.34375 3.65625 -3.234375 C 2.796875 -3.109375 2.5 -3.609375 2.40625 -4.140625 C 2.34375 -4.5625 2.390625 -4.984375 2.4375 -5.203125 L 3.34375 -9.921875 C 3.484375 -10.6875 4.203125 -11.234375 4.890625 -11.328125 C 5.578125 -11.4375 6.0625 -11.046875 6.140625 -10.53125 C 6.203125 -10.125 6.171875 -9.609375 6.078125 -9.109375 Z M 6.078125 -9.109375 "/></g></g></g><g fill="#0097b2" fill-opacity="0.502"><g transform="translate(22.457903, 48.203879)"><g><path d="M 14.546875 -8.90625 C 14.28125 -7.46875 13.546875 -6.421875 12.328125 -6.234375 L 12.3125 -6.234375 C 12.640625 -7.15625 12.828125 -8.28125 12.65625 -9.421875 C 12.484375 -10.59375 11.921875 -11.734375 10.84375 -12.609375 C 12.171875 -13.8125 12.890625 -15.921875 12.640625 -17.625 C 12.296875 -19.875 10.390625 -20.953125 8.453125 -20.875 C 8.25 -20.859375 7.984375 -20.84375 7.671875 -20.796875 C 7.0625 -20.703125 6.25 -20.484375 5.484375 -19.9375 C 5.375 -20.671875 4.640625 -21.03125 3.890625 -20.921875 C 3.15625 -20.796875 2.359375 -20.203125 2.203125 -19.140625 L -1.078125 -1.890625 C -1.171875 -1.59375 -1.15625 -1.296875 -1.125 -1.078125 C -0.984375 -0.171875 -0.234375 0.265625 0.515625 0.140625 C 1.296875 0.03125 2.0625 -0.640625 2.109375 -1.90625 C 3.0625 -0.921875 4.84375 -0.484375 6.59375 -0.734375 C 8.265625 -1 9.984375 -1.84375 11.109375 -3.421875 C 11.53125 -3.359375 12 -3.34375 12.53125 -3.421875 C 15.109375 -3.8125 16.90625 -5.921875 17.28125 -8.75 C 17.28125 -8.859375 17.296875 -8.953125 17.28125 -9.046875 C 17.171875 -9.78125 16.390625 -10.09375 15.6875 -9.984375 C 15.125 -9.90625 14.640625 -9.5625 14.546875 -8.90625 Z M 5.65625 -14.125 C 5 -13.734375 4.484375 -12.71875 4.640625 -11.703125 C 4.671875 -11.515625 4.734375 -11.3125 4.796875 -11.125 C 5.359375 -10 6.40625 -9.8125 7.25 -9.9375 C 7.59375 -9.984375 7.875 -10.078125 8.078125 -10.203125 C 8.671875 -10.140625 9.046875 -9.703125 9.15625 -8.96875 C 9.21875 -8.59375 9.21875 -8.171875 9.109375 -7.671875 C 8.1875 -8.3125 6.921875 -8.71875 5.421875 -8.5 C 4.71875 -8.40625 3.890625 -8.171875 3.390625 -7.828125 L 4.921875 -15.5625 C 5.296875 -16.734375 6.46875 -17.4375 7.421875 -17.578125 C 8.203125 -17.703125 8.9375 -17.328125 9.046875 -16.5625 C 9.140625 -15.9375 9 -14.8125 8 -14.234375 C 7.75 -14.375 7.109375 -14.484375 6.484375 -14.390625 C 6.1875 -14.34375 5.921875 -14.265625 5.65625 -14.125 Z M 5.9375 -3.484375 C 5.125 -3.359375 4.59375 -3.6875 4.515625 -4.203125 C 4.5 -4.296875 4.484375 -4.40625 4.515625 -4.515625 C 4.59375 -5.125 5.125 -5.609375 5.953125 -5.75 C 6.84375 -5.875 7.515625 -5.484375 8.203125 -4.96875 C 7.625 -4.109375 6.734375 -3.609375 5.9375 -3.484375 Z M 5.9375 -3.484375 "/></g></g></g><g fill="#0097b2" fill-opacity="0.502"><g transform="translate(37.195395, 45.977841)"><g><path d="M 8.640625 -6.03125 C 8.65625 -6 8.59375 -6.34375 8.4375 -6.75 C 8.578125 -6.90625 8.703125 -7.09375 8.8125 -7.328125 C 9.109375 -7.921875 9.484375 -9.953125 9.34375 -10.828125 C 9 -13.09375 6.9375 -14.3125 4.53125 -13.953125 C 2.46875 -13.640625 0.671875 -12.1875 0.265625 -10.125 L -0.65625 -5.3125 C -0.78125 -4.734375 -0.796875 -4.1875 -0.71875 -3.6875 C -0.359375 -1.375 1.84375 -0.28125 4.09375 -0.625 C 5.8125 -0.875 7.3125 -1.671875 7.984375 -3.390625 C 8.390625 -3.359375 8.859375 -3.359375 9.328125 -3.421875 C 11.9375 -3.8125 13.71875 -5.96875 14.125 -8.421875 C 14.140625 -8.65625 14.15625 -8.90625 14.125 -9.09375 C 14 -9.90625 13.328125 -10.28125 12.703125 -10.1875 C 12.09375 -10.09375 11.53125 -9.640625 11.421875 -8.8125 C 11.125 -7.359375 10.265625 -6.25 8.96875 -6.046875 C 8.875 -6.03125 8.75 -6.015625 8.640625 -6.03125 Z M 6.078125 -9.109375 C 6.046875 -8.90625 6 -8.71875 6.015625 -8.546875 C 4.78125 -8.484375 3.828125 -7.34375 4.03125 -6.015625 C 4.171875 -5.265625 4.609375 -4.921875 5.078125 -4.640625 C 4.90625 -3.8125 4.34375 -3.34375 3.65625 -3.234375 C 2.796875 -3.109375 2.5 -3.609375 2.40625 -4.140625 C 2.34375 -4.5625 2.390625 -4.984375 2.4375 -5.203125 L 3.34375 -9.921875 C 3.484375 -10.6875 4.203125 -11.234375 4.890625 -11.328125 C 5.578125 -11.4375 6.0625 -11.046875 6.140625 -10.53125 C 6.203125 -10.125 6.171875 -9.609375 6.078125 -9.109375 Z M 6.078125 -9.109375 "/></g></g></g><g fill="#0097b2" fill-opacity="0.502"><g transform="translate(48.729084, 44.235725)"><g><path d="M 8.640625 -6.03125 C 8.65625 -6 8.59375 -6.34375 8.4375 -6.75 C 8.578125 -6.90625 8.703125 -7.09375 8.8125 -7.328125 C 9.109375 -7.921875 9.484375 -9.953125 9.34375 -10.828125 C 9 -13.09375 6.9375 -14.3125 4.53125 -13.953125 C 2.46875 -13.640625 0.671875 -12.1875 0.265625 -10.125 L -0.65625 -5.3125 C -0.78125 -4.734375 -0.796875 -4.1875 -0.71875 -3.6875 C -0.359375 -1.375 1.84375 -0.28125 4.09375 -0.625 C 5.8125 -0.875 7.3125 -1.671875 7.984375 -3.390625 C 8.390625 -3.359375 8.859375 -3.359375 9.328125 -3.421875 C 11.9375 -3.8125 13.71875 -5.96875 14.125 -8.421875 C 14.140625 -8.65625 14.15625 -8.90625 14.125 -9.09375 C 14 -9.90625 13.328125 -10.28125 12.703125 -10.1875 C 12.09375 -10.09375 11.53125 -9.640625 11.421875 -8.8125 C 11.125 -7.359375 10.265625 -6.25 8.96875 -6.046875 C 8.875 -6.03125 8.75 -6.015625 8.640625 -6.03125 Z M 6.078125 -9.109375 C 6.046875 -8.90625 6 -8.71875 6.015625 -8.546875 C 4.78125 -8.484375 3.828125 -7.34375 4.03125 -6.015625 C 4.171875 -5.265625 4.609375 -4.921875 5.078125 -4.640625 C 4.90625 -3.8125 4.34375 -3.34375 3.65625 -3.234375 C 2.796875 -3.109375 2.5 -3.609375 2.40625 -4.140625 C 2.34375 -4.5625 2.390625 -4.984375 2.4375 -5.203125 L 3.34375 -9.921875 C 3.484375 -10.6875 4.203125 -11.234375 4.890625 -11.328125 C 5.578125 -11.4375 6.0625 -11.046875 6.140625 -10.53125 C 6.203125 -10.125 6.171875 -9.609375 6.078125 -9.109375 Z M 6.078125 -9.109375 "/></g></g></g><g fill="#ffffff" fill-opacity="1"><g transform="translate(21.440097, 47.015938)"><g><path d="M 14.546875 -8.90625 C 14.28125 -7.46875 13.546875 -6.421875 12.328125 -6.234375 L 12.3125 -6.234375 C 12.640625 -7.15625 12.828125 -8.28125 12.65625 -9.421875 C 12.484375 -10.59375 11.921875 -11.734375 10.84375 -12.609375 C 12.171875 -13.8125 12.890625 -15.921875 12.640625 -17.625 C 12.296875 -19.875 10.390625 -20.953125 8.453125 -20.875 C 8.25 -20.859375 7.984375 -20.84375 7.671875 -20.796875 C 7.0625 -20.703125 6.25 -20.484375 5.484375 -19.9375 C 5.375 -20.671875 4.640625 -21.03125 3.890625 -20.921875 C 3.15625 -20.796875 2.359375 -20.203125 2.203125 -19.140625 L -1.078125 -1.890625 C -1.171875 -1.59375 -1.15625 -1.296875 -1.125 -1.078125 C -0.984375 -0.171875 -0.234375 0.265625 0.515625 0.140625 C 1.296875 0.03125 2.0625 -0.640625 2.109375 -1.90625 C 3.0625 -0.921875 4.84375 -0.484375 6.59375 -0.734375 C 8.265625 -1 9.984375 -1.84375 11.109375 -3.421875 C 11.53125 -3.359375 12 -3.34375 12.53125 -3.421875 C 15.109375 -3.8125 16.90625 -5.921875 17.28125 -8.75 C 17.28125 -8.859375 17.296875 -8.953125 17.28125 -9.046875 C 17.171875 -9.78125 16.390625 -10.09375 15.6875 -9.984375 C 15.125 -9.90625 14.640625 -9.5625 14.546875 -8.90625 Z M 5.65625 -14.125 C 5 -13.734375 4.484375 -12.71875 4.640625 -11.703125 C 4.671875 -11.515625 4.734375 -11.3125 4.796875 -11.125 C 5.359375 -10 6.40625 -9.8125 7.25 -9.9375 C 7.59375 -9.984375 7.875 -10.078125 8.078125 -10.203125 C 8.671875 -10.140625 9.046875 -9.703125 9.15625 -8.96875 C 9.21875 -8.59375 9.21875 -8.171875 9.109375 -7.671875 C 8.1875 -8.3125 6.921875 -8.71875 5.421875 -8.5 C 4.71875 -8.40625 3.890625 -8.171875 3.390625 -7.828125 L 4.921875 -15.5625 C 5.296875 -16.734375 6.46875 -17.4375 7.421875 -17.578125 C 8.203125 -17.703125 8.9375 -17.328125 9.046875 -16.5625 C 9.140625 -15.9375 9 -14.8125 8 -14.234375 C 7.75 -14.375 7.109375 -14.484375 6.484375 -14.390625 C 6.1875 -14.34375 5.921875 -14.265625 5.65625 -14.125 Z M 5.9375 -3.484375 C 5.125 -3.359375 4.59375 -3.6875 4.515625 -4.203125 C 4.5 -4.296875 4.484375 -4.40625 4.515625 -4.515625 C 4.59375 -5.125 5.125 -5.609375 5.953125 -5.75 C 6.84375 -5.875 7.515625 -5.484375 8.203125 -4.96875 C 7.625 -4.109375 6.734375 -3.609375 5.9375 -3.484375 Z M 5.9375 -3.484375 "/></g></g></g><g fill="#ffffff" fill-opacity="1"><g transform="translate(36.177589, 44.7899)"><g><path d="M 8.640625 -6.03125 C 8.65625 -6 8.59375 -6.34375 8.4375 -6.75 C 8.578125 -6.90625 8.703125 -7.09375 8.8125 -7.328125 C 9.109375 -7.921875 9.484375 -9.953125 9.34375 -10.828125 C 9 -13.09375 6.9375 -14.3125 4.53125 -13.953125 C 2.46875 -13.640625 0.671875 -12.1875 0.265625 -10.125 L -0.65625 -5.3125 C -0.78125 -4.734375 -0.796875 -4.1875 -0.71875 -3.6875 C -0.359375 -1.375 1.84375 -0.28125 4.09375 -0.625 C 5.8125 -0.875 7.3125 -1.671875 7.984375 -3.390625 C 8.390625 -3.359375 8.859375 -3.359375 9.328125 -3.421875 C 11.9375 -3.8125 13.71875 -5.96875 14.125 -8.421875 C 14.140625 -8.65625 14.15625 -8.90625 14.125 -9.09375 C 14 -9.90625 13.328125 -10.28125 12.703125 -10.1875 C 12.09375 -10.09375 11.53125 -9.640625 11.421875 -8.8125 C 11.125 -7.359375 10.265625 -6.25 8.96875 -6.046875 C 8.875 -6.03125 8.75 -6.015625 8.640625 -6.03125 Z M 6.078125 -9.109375 C 6.046875 -8.90625 6 -8.71875 6.015625 -8.546875 C 4.78125 -8.484375 3.828125 -7.34375 4.03125 -6.015625 C 4.171875 -5.265625 4.609375 -4.921875 5.078125 -4.640625 C 4.90625 -3.8125 4.34375 -3.34375 3.65625 -3.234375 C 2.796875 -3.109375 2.5 -3.609375 2.40625 -4.140625 C 2.34375 -4.5625 2.390625 -4.984375 2.4375 -5.203125 L 3.34375 -9.921875 C 3.484375 -10.6875 4.203125 -11.234375 4.890625 -11.328125 C 5.578125 -11.4375 6.0625 -11.046875 6.140625 -10.53125 C 6.203125 -10.125 6.171875 -9.609375 6.078125 -9.109375 Z M 6.078125 -9.109375 "/></g></g></g><g fill="#ffffff" fill-opacity="1"><g transform="translate(47.711279, 43.047784)"><g><path d="M 8.640625 -6.03125 C 8.65625 -6 8.59375 -6.34375 8.4375 -6.75 C 8.578125 -6.90625 8.703125 -7.09375 8.8125 -7.328125 C 9.109375 -7.921875 9.484375 -9.953125 9.34375 -10.828125 C 9 -13.09375 6.9375 -14.3125 4.53125 -13.953125 C 2.46875 -13.640625 0.671875 -12.1875 0.265625 -10.125 L -0.65625 -5.3125 C -0.78125 -4.734375 -0.796875 -4.1875 -0.71875 -3.6875 C -0.359375 -1.375 1.84375 -0.28125 4.09375 -0.625 C 5.8125 -0.875 7.3125 -1.671875 7.984375 -3.390625 C 8.390625 -3.359375 8.859375 -3.359375 9.328125 -3.421875 C 11.9375 -3.8125 13.71875 -5.96875 14.125 -8.421875 C 14.140625 -8.65625 14.15625 -8.90625 14.125 -9.09375 C 14 -9.90625 13.328125 -10.28125 12.703125 -10.1875 C 12.09375 -10.09375 11.53125 -9.640625 11.421875 -8.8125 C 11.125 -7.359375 10.265625 -6.25 8.96875 -6.046875 C 8.875 -6.03125 8.75 -6.015625 8.640625 -6.03125 Z M 6.078125 -9.109375 C 6.046875 -8.90625 6 -8.71875 6.015625 -8.546875 C 4.78125 -8.484375 3.828125 -7.34375 4.03125 -6.015625 C 4.171875 -5.265625 4.609375 -4.921875 5.078125 -4.640625 C 4.90625 -3.8125 4.34375 -3.34375 3.65625 -3.234375 C 2.796875 -3.109375 2.5 -3.609375 2.40625 -4.140625 C 2.34375 -4.5625 2.390625 -4.984375 2.4375 -5.203125 L 3.34375 -9.921875 C 3.484375 -10.6875 4.203125 -11.234375 4.890625 -11.328125 C 5.578125 -11.4375 6.0625 -11.046875 6.140625 -10.53125 C 6.203125 -10.125 6.171875 -9.609375 6.078125 -9.109375 Z M 6.078125 -9.109375 "/></g></g></g></svg>